# xmcd CD database file
#
# Track frame offsets:
#	150
#	19615
#	34273
#	47206
#	66137
#	79858
#	94324
#	108140
#	124155
#	139817
#	154790
#	170098
#
# Disc length: 2535 seconds
#
# Revision: 1
# Processed by: cddbd v1.5.2PL0 Copyright (c) Steve Scherf et al.
# Submitted via: CDex 1.79
#
DISCID=a009e50c
DTITLE=Dale Watson - Live@Newland.NL/Remixed [CD2)
DYEAR=2006
DGENRE=Country
TTITLE0=I See Your Face (live)
TTITLE1=Gone, Gone, Away, Pretty Girls Never Stay (live)
TTITLE2=Tequila And Teardrops (live)
TTITLE3=I Take A Lot Of Pride In What I Am (live)
TTITLE4=Hair Of The Dog (live)
TTITLE5=South Of Round Rock Texas (live)
TTITLE6=No Help Wanted (live)
TTITLE7=A Real Country Song (Mr. DJ) (live)
TTITLE8=I Ain't Been Right (live)
TTITLE9=Way Down Texas Way (live)
TTITLE10=My Heart Is Yours (live)
TTITLE11=Nashville Rash (live)
EXTD=YEAR: 2006
EXTT0=
EXTT1=
EXTT2=
EXTT3=
EXTT4=
EXTT5=
EXTT6=
EXTT7=
EXTT8=
EXTT9=
EXTT10=
EXTT11=
PLAYORDER=
